<svg xmlns="http://www.w3.org/2000/svg" width="1180" height="640" viewBox="0 0 1180 640" role="img" aria-labelledby="title desc">
  <title id="title">Juplaya trailer power overview</title>
  <desc id="desc">Block diagram showing roof solar, optional ground solar, 48 volt battery, 24 volt house bus, Velit air conditioner, and standalone Anker C1000 AC island.</desc>
  <defs>
    <marker id="arrow" viewBox="0 0 10 10" refX="9" refY="5" markerWidth="8" markerHeight="8" orient="auto-start-reverse">
      <path d="M 0 0 L 10 5 L 0 10 z" fill="#334155"/>
    </marker>
    <style>
      .box { fill: #ffffff; stroke: #334155; stroke-width: 2; rx: 8; }
      .source { fill: #ecfeff; stroke: #0891b2; }
      .battery { fill: #f0fdf4; stroke: #16a34a; }
      .load { fill: #fff7ed; stroke: #ea580c; }
      .phase { fill: #f8fafc; stroke: #64748b; stroke-dasharray: 8 6; }
      .bus { fill: none; stroke: #334155; stroke-width: 2.5; }
      .line { fill: none; stroke: #334155; stroke-width: 2.5; marker-end: url(#arrow); }
      .soft { fill: none; stroke: #64748b; stroke-width: 2; stroke-dasharray: 6 6; marker-end: url(#arrow); }
      .label { font: 16px system-ui, -apple-system, Segoe UI, sans-serif; fill: #0f172a; font-weight: 650; }
      .small { font: 13px system-ui, -apple-system, Segoe UI, sans-serif; fill: #334155; }
      .tiny { font: 12px system-ui, -apple-system, Segoe UI, sans-serif; fill: #475569; }
    </style>
  </defs>

  <rect x="35" y="35" width="1110" height="570" fill="#f8fafc" stroke="#cbd5e1" stroke-width="2" rx="14"/>
  <text x="55" y="70" class="label">Juplaya power architecture</text>
  <text x="55" y="94" class="small">Critical trailer loads stay DC. Small 120 VAC loads stay on the portable C1000 island.</text>

  <rect x="70" y="105" width="210" height="78" class="box source"/>
  <text x="92" y="136" class="label">LG ground pair</text>
  <text x="92" y="159" class="small">optional 2S, 910 W</text>

  <rect x="680" y="135" width="255" height="98" class="box battery"/>
  <text x="704" y="171" class="label">LiTime ComFlex</text>
  <text x="704" y="194" class="small">48 V 100 Ah, 5.12 kWh</text>
  <text x="704" y="215" class="tiny">shunt + main OCP at battery</text>

  <rect x="365" y="105" width="230" height="78" class="box"/>
  <text x="388" y="136" class="label">SmartSolar 150/35</text>
  <text x="388" y="159" class="small">ordered ground MPPT</text>

  <rect x="70" y="245" width="210" height="78" class="box source"/>
  <text x="92" y="276" class="label">Roof PV</text>
  <text x="92" y="299" class="small">3 x LG455 in 3S</text>

  <rect x="365" y="245" width="230" height="78" class="box"/>
  <text x="388" y="276" class="label">SmartSolar 250/60-Tr</text>
  <text x="388" y="299" class="small">roof MPPT, 250 V class</text>

  <rect x="680" y="285" width="255" height="78" class="box load"/>
  <text x="704" y="316" class="label">Velit 2000R</text>
  <text x="704" y="339" class="small">48 V DC rooftop AC</text>

  <rect x="680" y="420" width="255" height="78" class="box"/>
  <text x="704" y="451" class="label">Orion-Tr 48/24-16A</text>
  <text x="704" y="474" class="small">isolated 24 V house bus</text>

  <text x="975" y="315" class="small">24 V house loads</text>
  <rect x="965" y="330" width="170" height="44" class="box load"/>
  <text x="978" y="349" class="small">Dometic fridge</text>
  <text x="978" y="366" class="tiny">~4.6 A running</text>

  <rect x="965" y="382" width="170" height="44" class="box load"/>
  <text x="978" y="401" class="small">Scanstrut USB-C</text>
  <text x="978" y="418" class="tiny">up to ~5 A</text>

  <rect x="965" y="434" width="170" height="44" class="box load"/>
  <text x="978" y="453" class="small">Lighting zones</text>
  <text x="978" y="470" class="tiny">~2-3 A typical</text>

  <rect x="965" y="486" width="170" height="44" class="box load"/>
  <text x="978" y="505" class="small">LandAirSea GPS</text>
  <text x="978" y="522" class="tiny">&lt;0.1 A typical</text>

  <rect x="70" y="500" width="210" height="78" class="box source"/>
  <text x="92" y="531" class="label">Anker PS400</text>
  <text x="92" y="554" class="small">400 W panel</text>

  <rect x="365" y="500" width="230" height="78" class="box load"/>
  <text x="388" y="531" class="label">Anker SOLIX C1000</text>
  <text x="388" y="554" class="small">portable 120 VAC island</text>

  <rect x="965" y="135" width="145" height="98" class="box phase"/>
  <text x="986" y="170" class="label">Phase 2</text>
  <text x="986" y="194" class="small">MultiPlus-II</text>
  <text x="986" y="214" class="tiny">optional later</text>

  <text x="612" y="128" class="tiny">48 V bus</text>
  <path class="bus" d="M 640 144 L 640 459"/>
  <path class="line" d="M 280 144 L 365 144"/>
  <path class="line" d="M 595 144 L 640 144"/>
  <path class="bus" d="M 640 184 L 680 184"/>
  <path class="line" d="M 280 284 L 365 284"/>
  <path class="line" d="M 595 284 L 640 284"/>
  <path class="line" d="M 640 324 L 680 324"/>
  <path class="line" d="M 640 459 L 680 459"/>
  <path class="bus" d="M 935 459 L 950 459 L 950 508 M 950 459 L 950 352"/>
  <path class="line" d="M 950 352 L 965 352"/>
  <path class="line" d="M 950 404 L 965 404"/>
  <path class="line" d="M 950 456 L 965 456"/>
  <path class="line" d="M 950 508 L 965 508"/>
  <path class="line" d="M 280 539 L 365 539"/>
  <path class="soft" d="M 760 498 C 760 540, 655 539, 595 539"/>
  <path class="soft" d="M 935 184 L 965 184"/>

  <text x="612" y="516" class="tiny">optional manual 24 V top-up to C1000</text>
  <text x="965" y="252" class="tiny">built-in inverter/charger deferred</text>
</svg>
