<svg xmlns="http://www.w3.org/2000/svg" width="760" height="820" viewBox="0 0 760 820" font-family="Helvetica, Arial, sans-serif">
  <defs>
    <marker id="arrow" markerWidth="10" markerHeight="10" refX="8" refY="3" orient="auto" markerUnits="strokeWidth">
      <path d="M0,0 L8,3 L0,6 z" fill="#222"/>
    </marker>
    <marker id="arrowStart" markerWidth="10" markerHeight="10" refX="0" refY="3" orient="auto" markerUnits="strokeWidth">
      <path d="M8,0 L0,3 L8,6 z" fill="#222"/>
    </marker>
  </defs>

  <!-- graph-paper background -->
  <rect x="0" y="0" width="760" height="820" fill="#ffffff"/>
  <g stroke="#dfe6ee" stroke-width="1">
    <g>
      <line x1="20"  y1="0" x2="20"  y2="820"/><line x1="40"  y1="0" x2="40"  y2="820"/>
      <line x1="60"  y1="0" x2="60"  y2="820"/><line x1="80"  y1="0" x2="80"  y2="820"/>
      <line x1="100" y1="0" x2="100" y2="820"/><line x1="120" y1="0" x2="120" y2="820"/>
      <line x1="140" y1="0" x2="140" y2="820"/><line x1="160" y1="0" x2="160" y2="820"/>
      <line x1="180" y1="0" x2="180" y2="820"/><line x1="200" y1="0" x2="200" y2="820"/>
      <line x1="220" y1="0" x2="220" y2="820"/><line x1="240" y1="0" x2="240" y2="820"/>
      <line x1="260" y1="0" x2="260" y2="820"/><line x1="280" y1="0" x2="280" y2="820"/>
      <line x1="300" y1="0" x2="300" y2="820"/><line x1="320" y1="0" x2="320" y2="820"/>
      <line x1="340" y1="0" x2="340" y2="820"/><line x1="360" y1="0" x2="360" y2="820"/>
      <line x1="380" y1="0" x2="380" y2="820"/><line x1="400" y1="0" x2="400" y2="820"/>
      <line x1="420" y1="0" x2="420" y2="820"/><line x1="440" y1="0" x2="440" y2="820"/>
      <line x1="460" y1="0" x2="460" y2="820"/><line x1="480" y1="0" x2="480" y2="820"/>
      <line x1="500" y1="0" x2="500" y2="820"/><line x1="520" y1="0" x2="520" y2="820"/>
      <line x1="540" y1="0" x2="540" y2="820"/><line x1="560" y1="0" x2="560" y2="820"/>
      <line x1="580" y1="0" x2="580" y2="820"/><line x1="600" y1="0" x2="600" y2="820"/>
      <line x1="620" y1="0" x2="620" y2="820"/><line x1="640" y1="0" x2="640" y2="820"/>
      <line x1="660" y1="0" x2="660" y2="820"/><line x1="680" y1="0" x2="680" y2="820"/>
      <line x1="700" y1="0" x2="700" y2="820"/><line x1="720" y1="0" x2="720" y2="820"/>
      <line x1="740" y1="0" x2="740" y2="820"/>
    </g>
    <g>
      <line x1="0" y1="20"  x2="760" y2="20"/><line x1="0" y1="40"  x2="760" y2="40"/>
      <line x1="0" y1="60"  x2="760" y2="60"/><line x1="0" y1="80"  x2="760" y2="80"/>
      <line x1="0" y1="100" x2="760" y2="100"/><line x1="0" y1="120" x2="760" y2="120"/>
      <line x1="0" y1="140" x2="760" y2="140"/><line x1="0" y1="160" x2="760" y2="160"/>
      <line x1="0" y1="180" x2="760" y2="180"/><line x1="0" y1="200" x2="760" y2="200"/>
      <line x1="0" y1="220" x2="760" y2="220"/><line x1="0" y1="240" x2="760" y2="240"/>
      <line x1="0" y1="260" x2="760" y2="260"/><line x1="0" y1="280" x2="760" y2="280"/>
      <line x1="0" y1="300" x2="760" y2="300"/><line x1="0" y1="320" x2="760" y2="320"/>
      <line x1="0" y1="340" x2="760" y2="340"/><line x1="0" y1="360" x2="760" y2="360"/>
      <line x1="0" y1="380" x2="760" y2="380"/><line x1="0" y1="400" x2="760" y2="400"/>
      <line x1="0" y1="420" x2="760" y2="420"/><line x1="0" y1="440" x2="760" y2="440"/>
      <line x1="0" y1="460" x2="760" y2="460"/><line x1="0" y1="480" x2="760" y2="480"/>
      <line x1="0" y1="500" x2="760" y2="500"/><line x1="0" y1="520" x2="760" y2="520"/>
      <line x1="0" y1="540" x2="760" y2="540"/><line x1="0" y1="560" x2="760" y2="560"/>
      <line x1="0" y1="580" x2="760" y2="580"/><line x1="0" y1="600" x2="760" y2="600"/>
      <line x1="0" y1="620" x2="760" y2="620"/><line x1="0" y1="640" x2="760" y2="640"/>
      <line x1="0" y1="660" x2="760" y2="660"/><line x1="0" y1="680" x2="760" y2="680"/>
      <line x1="0" y1="700" x2="760" y2="700"/><line x1="0" y1="720" x2="760" y2="720"/>
      <line x1="0" y1="740" x2="760" y2="740"/><line x1="0" y1="760" x2="760" y2="760"/>
      <line x1="0" y1="780" x2="760" y2="780"/><line x1="0" y1="800" x2="760" y2="800"/>
    </g>
  </g>

  <!-- ===================== INTERIOR FOOTPRINT (plan view, symmetric V-nose) =====================
       Rear wall (bottom) 81" · straight side walls 141" · V-nose 15" deep to a 13" flat tip ·
       nose walls resolved to 43" each (were ~42/43 eyeballed) · overall 156" rear->tip -->
  <polygon points="175,660 175,222 302,175 343,175 470,222 470,660"
           fill="#fbfbfb" stroke="#1a1a1a" stroke-width="3" stroke-linejoin="round"/>

  <!-- centerline (long axis) -->
  <line x1="322" y1="175" x2="322" y2="660" stroke="#bbb" stroke-width="1" stroke-dasharray="3,4"/>

  <!-- ===================== DOOR + SWING (curbside / right wall) ===================== -->
  <!-- opening on the right wall; door swings outward -->
  <line x1="470" y1="355" x2="470" y2="454" stroke="#fbfbfb" stroke-width="5"/>
  <line x1="470" y1="355" x2="470" y2="454" stroke="#1a1a1a" stroke-width="1" stroke-dasharray="2,3"/>
  <!-- leaf at ~30deg open + swing arc -->
  <line x1="470" y1="454" x2="519" y2="540" stroke="#555" stroke-width="1.6"/>
  <path d="M 470 553 A 99 99 0 0 0 556 504" fill="none" stroke="#555" stroke-width="1.2" stroke-dasharray="2,3"/>
  <text x="486" y="500" font-size="16" fill="#1a1a1a">30&#176;</text>
  <text x="500" y="560" font-size="14" fill="#555" font-style="italic">door swing</text>

  <!-- ===================== ROOF/NOSE-WALL LABELS (resolved equal) ===================== -->
  <text x="205" y="192" font-size="22" fill="#1a1a1a">43"</text>
  <text x="392" y="192" font-size="22" fill="#1a1a1a">43"</text>

  <!-- 13" nose-tip flat width -->
  <line x1="302" y1="150" x2="343" y2="150" stroke="#222" stroke-width="1.2"
        marker-start="url(#arrowStart)" marker-end="url(#arrow)"/>
  <line x1="302" y1="175" x2="302" y2="150" stroke="#888" stroke-width="0.8"/>
  <line x1="343" y1="175" x2="343" y2="150" stroke="#888" stroke-width="0.8"/>
  <text x="350" y="146" font-size="18" fill="#1a1a1a">13"</text>

  <!-- ===================== 141" left straight-wall length ===================== -->
  <line x1="120" y1="222" x2="120" y2="660" stroke="#222" stroke-width="1.2"
        marker-start="url(#arrowStart)" marker-end="url(#arrow)"/>
  <line x1="120" y1="222" x2="175" y2="222" stroke="#888" stroke-width="0.8"/>
  <line x1="120" y1="660" x2="175" y2="660" stroke="#888" stroke-width="0.8"/>
  <text x="78" y="448" font-size="22" fill="#1a1a1a">141"</text>

  <!-- ===================== 156" overall length (rear -> nose tip) ===================== -->
  <line x1="270" y1="175" x2="270" y2="660" stroke="#444" stroke-width="1.2" stroke-dasharray="6,5"
        marker-start="url(#arrowStart)" marker-end="url(#arrow)"/>
  <line x1="270" y1="175" x2="322" y2="175" stroke="#888" stroke-width="0.8"/>
  <text x="225" y="448" font-size="22" fill="#1a1a1a">156"</text>

  <!-- ===================== 98" curbside door station (rear -> door) ===================== -->
  <line x1="520" y1="355" x2="520" y2="660" stroke="#222" stroke-width="1.2"
        marker-start="url(#arrowStart)" marker-end="url(#arrow)"/>
  <line x1="470" y1="355" x2="520" y2="355" stroke="#888" stroke-width="0.8"/>
  <line x1="470" y1="660" x2="520" y2="660" stroke="#888" stroke-width="0.8"/>
  <text x="528" y="515" font-size="22" fill="#1a1a1a">98"</text>

  <!-- ===================== Interior Height 78" annotation ===================== -->
  <text x="560" y="250" font-size="20" fill="#1a1a1a">Interior Height</text>
  <text x="600" y="276" font-size="20" fill="#1a1a1a">78"</text>

  <!-- ===================== 81" rear interior width ===================== -->
  <line x1="175" y1="705" x2="470" y2="705" stroke="#222" stroke-width="1.2"
        marker-start="url(#arrowStart)" marker-end="url(#arrow)"/>
  <line x1="175" y1="660" x2="175" y2="705" stroke="#888" stroke-width="0.8"/>
  <line x1="470" y1="660" x2="470" y2="705" stroke="#888" stroke-width="0.8"/>
  <text x="305" y="728" font-size="22" fill="#1a1a1a">81"</text>

  <!-- framing / orientation notes -->
  <text x="40" y="36" font-size="14" fill="#a33">INTERIOR FOOTPRINT — plan view (looking down), as measured 2026-06-05</text>
  <text x="40" y="54" font-size="12" fill="#a33">redrawn from owner field sketch · NOT TO SCALE · nose walls resolved to 43" (symmetric)</text>
  <text x="250" y="135" font-size="13" fill="#0a6" font-style="italic">V-nose (front) &#8593;</text>
  <text x="250" y="688" font-size="13" fill="#0a6" font-style="italic">rear wall &#8595;</text>

  <!-- ===================== TITLE BLOCK ===================== -->
  <g>
    <rect x="470" y="740" width="290" height="80" fill="#ffffff" stroke="#1a1a1a" stroke-width="1.5"/>
    <line x1="470" y1="760" x2="760" y2="760" stroke="#1a1a1a" stroke-width="0.8"/>
    <line x1="470" y1="788" x2="760" y2="788" stroke="#1a1a1a" stroke-width="0.8"/>
    <line x1="600" y1="788" x2="600" y2="820" stroke="#1a1a1a" stroke-width="0.8"/>
    <text x="476" y="754" font-size="11" fill="#333">DRAWING NO:</text>
    <text x="476" y="780" font-size="13" fill="#111">TITLE:  structure layout (interior footprint)</text>
    <text x="476" y="804" font-size="11" fill="#333">DATE: 2026-06-05</text>
    <text x="606" y="804" font-size="11" fill="#333">UNITS: INCHES</text>
  </g>
</svg>
